<svg id="Layer_1" data-name="Layer 1" xmlns="http://www.w3.org/2000/svg" viewBox="0 0 102.47 81.37"><defs><style>.cls-1{fill:#fff;}.cls-2,.cls-3,.cls-4,.cls-5{fill:none;stroke:#000;stroke-miterlimit:10;}.cls-2{stroke-width:5.67px;}.cls-3{stroke-width:4.54px;}.cls-4,.cls-5{stroke-width:2.83px;}.cls-5{stroke-dasharray:9.7 2.29;}</style></defs><path class="cls-1" d="M56.81,39.18Z" transform="translate(-50.65 -40.3)"/><rect x="5.11" width="92.25" height="3.47" rx="1.73"/><rect x="49.07" y="1.93" width="4.33" height="5.89"/><rect class="cls-2" x="39.85" y="7.82" width="22.77" height="19.28" rx="3.26"/><circle cx="51.23" cy="33.22" r="2.1"/><circle cx="58.33" cy="33.22" r="2.1"/><circle cx="44.14" cy="33.22" r="2.1"/><rect class="cls-3" x="42.64" y="27.1" width="17.18" height="11.87"/><line class="cls-4" x1="50.83" y1="81.37" x2="50.83" y2="75.37"/><line class="cls-5" x1="50.83" y1="73.08" x2="50.83" y2="50.25"/><line class="cls-4" x1="50.83" y1="49.1" x2="50.83" y2="43.1"/><line class="cls-4" x1="64.19" y1="33.21" x2="70.19" y2="33.21"/><line class="cls-5" x1="72.48" y1="33.21" x2="95.32" y2="33.21"/><line class="cls-4" x1="96.47" y1="33.21" x2="102.47" y2="33.21"/><line class="cls-4" y1="33.21" x2="6" y2="33.21"/><line class="cls-5" x1="8.29" y1="33.21" x2="31.13" y2="33.21"/><line class="cls-4" x1="32.27" y1="33.21" x2="38.27" y2="33.21"/><line class="cls-4" x1="18.36" y1="72.61" x2="22.14" y2="67.96"/><line class="cls-5" x1="23.58" y1="66.18" x2="37.98" y2="48.45"/><line class="cls-4" x1="38.7" y1="47.56" x2="42.48" y2="42.9"/><line class="cls-4" x1="84.11" y1="72.61" x2="80.33" y2="67.96"/><line class="cls-5" x1="78.88" y1="66.18" x2="64.49" y2="48.45"/><line class="cls-4" x1="63.76" y1="47.56" x2="59.98" y2="42.9"/><line class="cls-4" x1="5.43" y1="57.41" x2="10.63" y2="54.41"/><line class="cls-5" x1="12.61" y1="53.26" x2="32.39" y2="41.85"/><line class="cls-4" x1="33.38" y1="41.27" x2="38.58" y2="38.27"/><line class="cls-4" x1="97.03" y1="57.41" x2="91.84" y2="54.41"/><line class="cls-5" x1="89.85" y1="53.26" x2="70.08" y2="41.85"/><line class="cls-4" x1="69.08" y1="41.27" x2="63.89" y2="38.27"/></svg>