<svg id="Layer_1" data-name="Layer 1" xmlns="http://www.w3.org/2000/svg" xmlns:xlink="http://www.w3.org/1999/xlink" width="2.97cm" height="2.97cm" viewBox="0 0 84.16 84.25">
  <defs>
    <style>
      .cls-1 {
        fill: url(#linear-gradient);
      }

      .cls-2 {
        fill: url(#linear-gradient-2);
      }
    </style>
    <linearGradient id="linear-gradient" x1="-860.39" y1="650.06" x2="-859.39" y2="650.06" gradientTransform="translate(47339.63 -54679.48) scale(55.02 84.18)" gradientUnits="userSpaceOnUse">
      <stop offset="0" stop-color="#17488e"/>
      <stop offset="0.11" stop-color="#0f67af"/>
      <stop offset="0.26" stop-color="#1d8dcd"/>
      <stop offset="0.38" stop-color="#23a4dd"/>
      <stop offset="0.46" stop-color="#2bace2"/>
      <stop offset="0.54" stop-color="#2ba5de"/>
      <stop offset="0.67" stop-color="#2391d0"/>
      <stop offset="0.83" stop-color="#0d73bb"/>
      <stop offset="1" stop-color="#17488e"/>
    </linearGradient>
    <linearGradient id="linear-gradient-2" x1="-860.65" y1="648.92" x2="-859.65" y2="650.09" gradientTransform="translate(37330.92 -52602.04) scale(43.33 81.04)" gradientUnits="userSpaceOnUse">
      <stop offset="0" stop-color="#9b9c9b"/>
      <stop offset="0.23" stop-color="#8c8c8c"/>
      <stop offset="0.72" stop-color="#6d6e6e"/>
      <stop offset="1" stop-color="#616262"/>
    </linearGradient>
  </defs>
  <g>
    <path id="Path_34" data-name="Path 34" class="cls-1" d="M12.06,51.83c.49-4.3,1.46-8.56,2.32-12.81a8.88,8.88,0,0,1,1.88-3.92c.07.91.16,1.88.24,2.82A30,30,0,0,0,23,55a13.25,13.25,0,0,0,5.18,3.73C31,59.87,33.38,58.08,33,55a19.27,19.27,0,0,0-2.33-6.22c-2.77-5.28-6.17-10.35-8.5-15.83-2.72-6.19-2-12.3,1.05-18.9-.1,5.12-.09,9.62,2.41,13.48a11.47,11.47,0,0,0,4.6,3.91c2.59,1.22,4.08-.24,3.42-3-.5-2.12-1.27-4.16-1.73-6.28a15.88,15.88,0,0,1,1.29-10.52c.25,1.75.43,3.52.78,5.26,1.6,8.15,5.86,15,10.11,22,1.82,2.92,3.55,5.87,5.13,8.9,7.45,14.1,2.32,26.17-7.85,34.44a10.32,10.32,0,0,1-3,1.81c1.26.12,2.53.17,3.82.17h.62c.73-.76,1.32-1.4,2-2C51.24,76,55.31,68.71,55,59.44c-.18-5.6-2.42-10.55-5.14-15.32-3.22-5.76-6.69-11.39-9.79-17.22-3.37-6.39-4.71-13.21-2.9-20.37A30.47,30.47,0,0,1,39.65.07,42.12,42.12,0,0,0,26.87,81.38,29.83,29.83,0,0,1,12.06,51.83Z"/>
    <path id="Path_35" data-name="Path 35" class="cls-2" d="M42.13,0H41.8c-.12.44-.22.91-.33,1.32-1.29,5.27-.37,10.06,3.68,13.82,3.86,3.57,8,6.9,12,10.28,6.23,5.25,11.54,11.1,13.92,19.19C75.13,58.45,69.68,73.76,58.23,81A42.12,42.12,0,0,0,42.13,0Z"/>
  </g>
</svg>
