<?xml version="1.0" encoding="utf-8"?>
<!-- Generator: Adobe Illustrator 24.1.2, SVG Export Plug-In . SVG Version: 6.00 Build 0)  -->
<svg version="1.1" id="Layer_1" xmlns="http://www.w3.org/2000/svg" xmlns:xlink="http://www.w3.org/1999/xlink" x="0px" y="0px"
	 viewBox="0 0 410.1 100.3" style="enable-background:new 0 0 410.1 100.3;" xml:space="preserve">
<style type="text/css">
	.st0{fill:url(#Path_1_1_);}
	.st1{fill:url(#Path_2_1_);}
	.st2{fill:url(#Path_3_1_);}
	.st3{fill:url(#Path_4_1_);}
	.st4{fill:url(#Path_5_1_);}
	.st5{fill:url(#Path_6_1_);}
	.st6{fill:url(#Path_7_1_);}
	.st7{fill:#9B9B9B;}
	.st8{fill:url(#Path_34_1_);}
	.st9{fill:url(#Path_35_1_);}
</style>
<linearGradient id="Path_1_1_" gradientUnits="userSpaceOnUse" x1="-1073.0651" y1="742.3785" x2="-1072.0651" y2="741.4785" gradientTransform="matrix(30.64 0 0 -58.37 33006.8203 43347.8164)">
	<stop  offset="0" style="stop-color:#9B9C9C"/>
	<stop  offset="0.41" style="stop-color:#727272"/>
	<stop  offset="1" style="stop-color:#383938"/>
</linearGradient>
<path id="Path_1" class="st0" d="M126.2,78V8.5h36.5v0.1c0,1.9-0.7,3.7-2.1,5c-1.3,1.3-3.1,2-4.9,2h-22.4v24.1h29.4v0.2
	c0,3.9-3.1,7-7,7h-22.4V71c0,1.8-0.7,3.6-2,4.9c-1.3,1.4-3.1,2.1-5,2.1H126.2z"/>
<linearGradient id="Path_2_1_" gradientUnits="userSpaceOnUse" x1="-1056.0306" y1="742.3989" x2="-1052.6306" y2="741.4989" gradientTransform="matrix(8.72 0 0 -57.35 9369.7207 42596.5859)">
	<stop  offset="0" style="stop-color:#9B9C9C"/>
	<stop  offset="0.41" style="stop-color:#727272"/>
	<stop  offset="1" style="stop-color:#383938"/>
</linearGradient>
<path id="Path_2" class="st1" d="M178.8,11.2c2,2,2,5.3,0,7.3c0,0,0,0,0,0l0,0l0,0c-1,1-2.3,1.6-3.7,1.5c-1.4,0-2.7-0.5-3.6-1.5
	c-2-2-2-5.3,0-7.4c1-1,2.3-1.5,3.6-1.5C176.5,9.7,177.8,10.2,178.8,11.2z M171.6,27.8h7.1V71c0,3.8-3.1,7-6.9,7h-0.2L171.6,27.8z"/>
<linearGradient id="Path_3_1_" gradientUnits="userSpaceOnUse" x1="-1068.7183" y1="745.3544" x2="-1067.6183" y2="744.4443" gradientTransform="matrix(20.09 0 0 -42.19 21662.6387 31476.3574)">
	<stop  offset="0" style="stop-color:#9B9C9C"/>
	<stop  offset="0.41" style="stop-color:#727272"/>
	<stop  offset="1" style="stop-color:#383938"/>
</linearGradient>
<path id="Path_3" class="st2" d="M193.4,78V27.8h0.1c2.7-0.1,5.1,1.4,6.2,3.8c3-2.5,6.8-3.9,10.7-3.8h6.9v0.1c0,1.8-0.7,3.6-1.9,4.9
	c-1.3,1.4-3.1,2.1-5,2.1c-2.6,0-5.2,1.1-7,3c-1.9,1.8-2.9,4.4-2.9,7V71C200.5,74.9,197.3,78,193.4,78L193.4,78z"/>
<linearGradient id="Path_4_1_" gradientUnits="userSpaceOnUse" x1="-1074.3722" y1="744.6746" x2="-1073.7822" y2="743.6345" gradientTransform="matrix(44.96 0 0 -45 48535.8906 33537.418)">
	<stop  offset="0" style="stop-color:#9B9C9C"/>
	<stop  offset="0.41" style="stop-color:#727272"/>
	<stop  offset="1" style="stop-color:#383938"/>
</linearGradient>
<path id="Path_4" class="st3" d="M269.9,66.2c-7.4,12.8-23.7,17.2-36.5,9.8c-11.7-6.7-16.5-21.1-11.3-33.6c1.4-3.2,3.3-6,5.7-8.5
	c2.4-2.4,5.3-4.4,8.5-5.8c6.6-2.8,14.2-2.8,20.8,0c6.4,2.8,11.5,7.9,14.3,14.3c1.4,3.3,2.1,6.8,2.1,10.4v3.6h-46.1
	c0.7,3.9,2.7,7.5,5.5,10.3c3.7,3.7,8.7,5.8,13.9,5.8c3.4,0,6.8-0.9,9.8-2.6c1.5-0.8,2.9-1.8,4.1-3c1.3-1.3,3-2,4.9-2.1
	c1.3,0,2.5,0.4,3.6,1L269.9,66.2z M232.9,39c-2.8,2.8-4.7,6.4-5.5,10.4h38.7c-1.9-10.7-12.1-17.8-22.8-15.9
	C239.4,34.2,235.7,36.1,232.9,39L232.9,39z"/>
<linearGradient id="Path_5_1_" gradientUnits="userSpaceOnUse" x1="-1068.5333" y1="812.9067" x2="-1068.2134" y2="810.8067" gradientTransform="matrix(21.68 0 0 -5.71 23458.9199 4685.8105)">
	<stop  offset="0" style="stop-color:#9B9C9C"/>
	<stop  offset="0.41" style="stop-color:#727272"/>
	<stop  offset="1" style="stop-color:#383938"/>
</linearGradient>
<path id="Path_5" class="st4" d="M309.2,46.3L309.2,46.3c0,3.8-3,6.8-6.8,6.8h-19c0-3.8,3-6.8,6.8-6.8c0,0,0,0,0,0H309.2L309.2,46.3
	z"/>
<linearGradient id="Path_6_1_" gradientUnits="userSpaceOnUse" x1="-1072.3378" y1="742.4261" x2="-1071.0378" y2="741.7061" gradientTransform="matrix(32.54 0 0 -58.33 35201.4297 43322.1094)">
	<stop  offset="0" style="stop-color:#1A478E"/>
	<stop  offset="0.11" style="stop-color:#0766AF"/>
	<stop  offset="0.26" style="stop-color:#148DCE"/>
	<stop  offset="0.38" style="stop-color:#20A4DD"/>
	<stop  offset="0.46" style="stop-color:#2BACE2"/>
	<stop  offset="0.54" style="stop-color:#27A5DE"/>
	<stop  offset="0.67" style="stop-color:#1B91D0"/>
	<stop  offset="0.83" style="stop-color:#0572BA"/>
	<stop  offset="1" style="stop-color:#1A478E"/>
</linearGradient>
<path id="Path_6" class="st5" d="M323.2,78V15.7h-15.8v-0.1c0-3.9,3.1-7,7-7h31.7v0.1c0,1.9-0.7,3.7-2,5c-1.3,1.3-3.1,2.1-5,2h-8.8
	V71C330.3,74.9,327.1,78,323.2,78C323.3,78,323.2,78,323.2,78L323.2,78L323.2,78z"/>
<linearGradient id="Path_7_1_" gradientUnits="userSpaceOnUse" x1="-1074.5062" y1="742.4808" x2="-1073.1663" y2="741.4108" gradientTransform="matrix(46.52 0 0 -58.41 50333.5 43379.0898)">
	<stop  offset="0" style="stop-color:#1A478E"/>
	<stop  offset="0.11" style="stop-color:#0766AF"/>
	<stop  offset="0.26" style="stop-color:#148DCE"/>
	<stop  offset="0.38" style="stop-color:#20A4DD"/>
	<stop  offset="0.46" style="stop-color:#2BACE2"/>
	<stop  offset="0.54" style="stop-color:#27A5DE"/>
	<stop  offset="0.67" style="stop-color:#1B91D0"/>
	<stop  offset="0.83" style="stop-color:#0572BA"/>
	<stop  offset="1" style="stop-color:#1A478E"/>
</linearGradient>
<path id="Path_7" class="st6" d="M396.8,74.9l-17-25.3l-17.1,25.3c-1.3,1.9-3.4,3.1-5.8,3.1h-4.8l23.4-34.7l-3.6-5.4L352.1,8.6h4.9
	c2.3,0,4.5,1.1,5.8,3l17.1,25.3l17-25.3c1.3-2,3.5-3.1,5.8-3.1h4.9l-19.9,29.4l-3.6,5.4l23.4,34.7h-4.9
	C400.3,78.1,398.1,76.9,396.8,74.9z"/>
<path id="Path_8" class="st7" d="M126.6,85h-0.3v10.8h1.3v-4.6h5.9v-1.3h-5.9v-3.5h6.1V85H126.6z"/>
<path id="Path_9" class="st7" d="M137.4,85h-0.3v10.7h1.3V85H137.4z"/>
<path id="Path_10" class="st7" d="M147.6,91.8c0.8-0.1,1.6-0.4,2.2-1c0.6-0.6,0.9-1.5,0.9-2.3c0-1.9-1.5-3.4-3.4-3.4h-5v10.8h1.3v-4
	h2.5l3.5,3.8l0.1,0.1h1.7l-0.4-0.4L147.6,91.8z M143.6,86.2h3.4c0.6,0,1.2,0.2,1.6,0.6c0.4,0.4,0.6,1,0.6,1.6
	c0.1,1.1-0.7,2.1-1.8,2.2c0,0,0,0-0.1,0c-0.2,0-0.3,0-0.5,0h-3.4L143.6,86.2z"/>
<path id="Path_11" class="st7" d="M155.1,94.5v-3.5h6v-1.2h-6v-3.5h6.3V85h-7.6v10.7h7.7v-1.3L155.1,94.5L155.1,94.5z"/>
<path id="Path_12" class="st7" d="M174.8,89.6h-0.1c-1.8-0.3-2.9-0.6-2.9-1.7c0-1.8,2.6-1.8,2.8-1.8c1.2-0.1,2.3,0.4,2.9,1.3
	l0.1,0.2l0.2-0.1l0.6-0.4l0.3-0.1l-0.2-0.2c-0.9-1.3-2.4-2.1-4-1.9c-1.2-0.1-2.5,0.4-3.4,1.2c-0.5,0.5-0.8,1.2-0.7,1.9
	c0,2.1,2.2,2.5,4,2.9s3.2,0.7,3.2,1.9c0,1.7-2.1,1.9-3,1.9c-1.3,0-2.5-0.6-3.2-1.7l-0.1-0.2l-0.2,0.1l-0.7,0.3l-0.2,0.1l0.1,0.2
	c0.9,1.5,2.6,2.4,4.4,2.4c1,0,4.3-0.2,4.3-3.1C178.9,90.4,176.8,90,174.8,89.6z"/>
<path id="Path_13" class="st7" d="M189.4,85h-0.3v6.6c0.1,1.6-1.1,3-2.7,3.1c-1.6,0.1-3-1.1-3.1-2.7l0,0c0-0.1,0-0.2,0-0.3V85h-1.3
	v6.6c-0.2,2.2,1.5,4.1,3.7,4.3c0,0,0,0,0.1,0h0.4c2.3,0,4.1-1.7,4.2-4V85H189.4z"/>
<path id="Path_14" class="st7" d="M198.9,85h-4.7v10.8h1.3v-3.6h3.4c1.9,0.1,3.5-1.5,3.6-3.4v-0.2c0-0.9-0.3-1.8-0.9-2.5
	C200.9,85.4,199.9,85,198.9,85z M195.5,86.2h3.4c0.7,0,1.3,0.2,1.7,0.7c0.4,0.5,0.6,1.1,0.6,1.7c0.1,1.2-0.9,2.3-2.1,2.3h-3.6V86.2z
	"/>
<path id="Path_15" class="st7" d="M210.5,85h-4.8v10.8h1.3v-3.6h3.4c1.9,0.1,3.5-1.4,3.6-3.4c0,0,0,0,0,0v-0.2
	c0-0.9-0.3-1.8-0.9-2.5C212.5,85.4,211.6,85,210.5,85z M207.1,86.2h3.4c0.7,0,1.3,0.2,1.7,0.7c0.4,0.5,0.6,1,0.6,1.6
	c0.1,1.2-0.9,2.3-2.1,2.3h-3.6V86.2z"/>
<path id="Path_16" class="st7" d="M222.8,91.8c0.8-0.1,1.5-0.4,2.1-1c0.6-0.6,1-1.5,0.9-2.4c0-1.9-1.6-3.4-3.4-3.4h-5v10.8h1.3v-3.9
	h2.4l3.5,3.8l0.1,0.1h1.7l-0.4-0.4L222.8,91.8z M218.7,86.2h3.5c1.2,0,2.2,0.9,2.3,2.1v0.1c0.1,1.1-0.7,2.1-1.8,2.2c0,0,0,0-0.1,0
	c-0.2,0-0.3,0-0.5,0h-3.4V86.2z"/>
<path id="Path_17" class="st7" d="M230.2,94.5v-3.5h6v-1.2h-6v-3.5h6.3V85h-7.6v10.7h7.8v-1.3L230.2,94.5z"/>
<path id="Path_18" class="st7" d="M244.3,89.6h-0.1c-1.8-0.3-2.9-0.6-2.9-1.7c0-1.8,2.5-1.8,2.8-1.8c1.1-0.1,2.2,0.4,2.9,1.3
	l0.1,0.2l0.2-0.1l0.6-0.4l0.2-0.1l-0.2-0.2c-0.9-1.3-2.4-2-3.9-1.9c-1.2-0.1-2.5,0.3-3.4,1.2c-0.5,0.5-0.8,1.2-0.8,1.9
	c0,2.1,2.2,2.5,4,2.9s3.2,0.7,3.2,1.9c0,1.7-2.2,1.9-3,1.9c-1.3,0-2.6-0.6-3.3-1.7l-0.1-0.2l-0.2,0.1l-0.7,0.3l-0.2,0.1l0.1,0.2
	c0.9,1.5,2.6,2.5,4.4,2.4c1,0,4.3-0.2,4.3-3.1C248.3,90.4,246.2,90,244.3,89.6z"/>
<path id="Path_19" class="st7" d="M255.5,89.6h-0.1c-1.8-0.3-2.9-0.6-2.9-1.7c0-1.8,2.6-1.8,2.8-1.8c1.1-0.1,2.2,0.4,2.9,1.3
	l0.1,0.2l0.2-0.2l0.6-0.4l0.2-0.1l-0.1-0.2c-0.9-1.3-2.4-2-4-1.8c-1.2-0.1-2.4,0.4-3.4,1.2c-0.5,0.5-0.8,1.2-0.7,1.9
	c0,2.1,2.2,2.5,4,2.9c1.8,0.4,3.2,0.7,3.2,1.9c0,1.7-2.2,1.9-3,1.9c-1.3,0-2.6-0.6-3.3-1.8l-0.1-0.2l-0.2,0.1l-0.7,0.3l-0.2,0.1
	l0.1,0.2c0.9,1.5,2.6,2.4,4.4,2.4c1,0,4.3-0.2,4.3-3.1C259.6,90.4,257.4,90,255.5,89.6z"/>
<path id="Path_20" class="st7" d="M263.1,85h-0.3v10.7h1.3V85H263.1z"/>
<path id="Path_21" class="st7" d="M273.2,84.8c-2.9-0.1-5.3,2.1-5.4,5c0,0,0,0,0,0c0,0.2,0,0.4,0,0.6c0.1,3,2.6,5.3,5.6,5.2
	c2.8-0.1,5-2.4,5.2-5.2c0-1.5-0.5-2.9-1.5-4C276,85.4,274.6,84.8,273.2,84.8L273.2,84.8z M277.4,90.4c0.1,2.3-1.7,4.2-3.9,4.3
	c-2.3,0.1-4.2-1.7-4.3-3.9l0,0c0-0.1,0-0.3,0-0.4c-0.1-1.2,0.4-2.3,1.2-3.2c1.7-1.6,4.4-1.5,6,0.2C277,88.2,277.4,89.3,277.4,90.4z"
	/>
<path id="Path_22" class="st7" d="M289.5,85h-0.3v8l-6.4-7.9l-0.1-0.1h-0.7v10.7h1.3v-8l6.5,7.9l0.1,0.1h0.7V85H289.5z"/>
<path id="Path_23" class="st7" d="M304.4,89.6h-0.1c-1.8-0.3-2.9-0.6-2.9-1.7c0-1.8,2.6-1.8,2.9-1.8c1.1-0.1,2.2,0.4,2.9,1.3
	l0.1,0.2l0.2-0.1l0.6-0.4l0.2-0.1l-0.1-0.2c-0.9-1.3-2.4-2.1-4-1.9c-1.2-0.1-2.5,0.4-3.4,1.2c-0.5,0.5-0.8,1.2-0.7,1.9
	c0,2.1,2.2,2.5,4,2.9s3.2,0.7,3.1,1.9c0,1.7-2.1,1.9-3,1.9c-1.3,0-2.5-0.6-3.2-1.7l-0.1-0.2h-0.3l-0.7,0.3l-0.2,0.1l0.1,0.2
	c0.9,1.5,2.6,2.5,4.4,2.4c1,0,4.3-0.2,4.3-3.1C308.5,90.4,306.3,90,304.4,89.6z"/>
<path id="Path_24" class="st7" d="M316.5,85h-4.8v10.8h1.3v-3.6h3.4c1.9,0,3.5-1.5,3.6-3.4l0,0v-0.2c0-0.9-0.3-1.8-0.9-2.5
	C318.4,85.4,317.5,85,316.5,85z M318.8,88.6c0.1,1.2-0.8,2.3-2.1,2.4c0,0,0,0,0,0H313v-4.8h3.4c0.7,0,1.3,0.2,1.7,0.7
	C318.5,87.4,318.7,88,318.8,88.6L318.8,88.6z"/>
<path id="Path_25" class="st7" d="M324.6,94.5v-3.5h6v-1.2h-6v-3.5h6.3V85h-7.5v10.7h7.8v-1.3L324.6,94.5z"/>
<path id="Path_26" class="st7" d="M339.3,86.1c1.1,0,2.2,0.4,3,1.2l0.2,0.2l0.2-0.2l0.5-0.5l0.2-0.2l-0.2-0.2
	c-2.2-2.1-5.7-2.2-7.9-0.1c-1,1.1-1.6,2.5-1.5,4c-0.1,2.9,2.1,5.3,5,5.4c0,0,0,0,0,0h0.5c1.5,0,2.9-0.6,3.9-1.6l0.2-0.2l-0.2-0.2
	l-0.5-0.5l-0.2-0.2l-0.2,0.2c-0.8,0.8-1.9,1.2-3,1.2c-2.2,0.1-4.1-1.6-4.2-3.8v-0.4c0-1.2,0.4-2.3,1.2-3.2
	C337.2,86.4,338.3,86,339.3,86.1L339.3,86.1z"/>
<path id="Path_27" class="st7" d="M347,85h-0.3v10.7h1.3V85H347z"/>
<path id="Path_28" class="st7" d="M356.7,85.1l-0.1-0.1h-1.2l-0.1,0.2l-4.6,10.2l-0.2,0.4h1.4l0.1-0.2l1.1-2.4h5.7l1.1,2.4l0.1,0.2
	h1.4l-0.1-0.4L356.7,85.1z M358.4,92h-4.7l2.4-5.3L358.4,92z"/>
<path id="Path_29" class="st7" d="M365.6,94.5V85h-1.3v10.7h7.1v-1.3H365.6z"/>
<path id="Path_30" class="st7" d="M374.6,85h-0.3v10.7h1.3V85H374.6z"/>
<path id="Path_31" class="st7" d="M383.7,89.6h-0.1c-1.8-0.3-2.9-0.6-2.9-1.7c0-1.8,2.5-1.8,2.8-1.8c1.2-0.1,2.3,0.4,2.9,1.3
	l0.1,0.2l0.2-0.1l0.6-0.4l0.2-0.1l-0.1-0.2c-0.9-1.3-2.4-2.1-4-1.9c-1.2-0.1-2.5,0.4-3.4,1.2c-0.5,0.5-0.8,1.2-0.8,1.8
	c0,2.1,2.2,2.5,4,2.9s3.2,0.7,3.2,2c0,1.7-2.1,1.9-3,1.9c-1.3,0-2.5-0.6-3.3-1.7l-0.1-0.2l-0.2,0.1l-0.7,0.3l-0.2,0.1l0.1,0.2
	c0.9,1.5,2.6,2.4,4.4,2.4c1,0,4.3-0.2,4.3-3.1C387.9,90.4,385.7,90,383.7,89.6z"/>
<path id="Path_32" class="st7" d="M390.5,85h-0.2v1.2h3.7v9.5h1.3v-9.5h3.7V85H390.5z"/>
<path id="Path_33" class="st7" d="M406,89.6h-0.1c-1.8-0.3-2.9-0.6-2.9-1.7c0-1.8,2.6-1.8,2.9-1.8c1.1-0.1,2.3,0.4,2.9,1.3l0.1,0.2
	l0.2-0.1l0.6-0.4l0.2-0.1l-0.1-0.2c-0.9-1.3-2.4-2-3.9-1.9c-1.2-0.1-2.5,0.4-3.4,1.2c-0.5,0.5-0.8,1.2-0.7,1.9c0,2.1,2.2,2.5,4,2.9
	s3.2,0.7,3.2,1.9c0,1.7-2.1,1.9-3,1.9c-1.3,0-2.6-0.6-3.3-1.7l-0.1-0.2l-0.2,0.1l-0.7,0.3l-0.2,0.1l0.1,0.2c0.9,1.5,2.6,2.5,4.4,2.4
	c1,0,4.3-0.2,4.3-3.1C410.1,90.4,407.9,90,406,89.6z"/>
<linearGradient id="Path_34_1_" gradientUnits="userSpaceOnUse" x1="-1076.4882" y1="739.5919" x2="-1075.2991" y2="739.5919" gradientTransform="matrix(55.03 0 0 -84.19 59238.8828 62316.4688)">
	<stop  offset="0" style="stop-color:#1A478E"/>
	<stop  offset="0.11" style="stop-color:#0766AF"/>
	<stop  offset="0.26" style="stop-color:#148DCE"/>
	<stop  offset="0.38" style="stop-color:#20A4DD"/>
	<stop  offset="0.46" style="stop-color:#2BACE2"/>
	<stop  offset="0.54" style="stop-color:#27A5DE"/>
	<stop  offset="0.67" style="stop-color:#1B91D0"/>
	<stop  offset="0.83" style="stop-color:#0572BA"/>
	<stop  offset="1" style="stop-color:#1A478E"/>
</linearGradient>
<path id="Path_34" class="st8" d="M14.3,61.7c0.6-5.1,1.7-10.2,2.7-15.3c0.4-1.7,1.1-3.3,2.3-4.6c0.1,1.1,0.2,2.2,0.3,3.4
	c0.4,7.4,3.1,14.5,7.8,20.3c1.7,2,3.8,3.5,6.2,4.4c3.4,1.4,6.2-0.8,5.7-4.4c-0.5-2.6-1.4-5.1-2.8-7.4c-3.3-6.3-7.4-12.3-10.1-18.9
	c-3.2-7.4-2.4-14.6,1.3-22.5c-0.1,6.1-0.1,11.5,2.9,16c1.4,2,3.3,3.6,5.5,4.7c3.1,1.4,4.9-0.3,4.1-3.6c-0.6-2.5-1.5-4.9-2.1-7.4
	c-0.9-4.2-0.4-8.6,1.5-12.5c0.3,2.1,0.5,4.2,0.9,6.3c1.9,9.7,7,17.9,12,26.1c2.2,3.5,4.2,7,6.1,10.6c8.9,17,2.8,31.3-9.3,41.2
	c-1.1,0.9-2.3,1.7-3.6,2.2c1.5,0.1,3,0.2,4.5,0.2h0.7c0.9-0.9,1.6-1.7,2.3-2.4c7.8-7.4,12.6-16.1,12.3-27.2
	c-0.2-6.7-2.9-12.5-6.1-18.2c-3.8-6.9-8-13.6-11.6-20.5c-4-7.6-5.7-15.8-3.5-24.3c0.7-2.7,1.7-5.2,2.9-7.7
	C19.5,1.8-1.6,25.5,0.1,53.2c1.2,19.5,13.6,36.6,31.8,43.7C19.5,89.8,12.5,75.9,14.3,61.7z"/>
<linearGradient id="Path_35_1_" gradientUnits="userSpaceOnUse" x1="-1075.4449" y1="740.5572" x2="-1074.2549" y2="739.1672" gradientTransform="matrix(43.34 0 0 -81.05 46655.2422 60004.2344)">
	<stop  offset="0" style="stop-color:#9B9C9C"/>
	<stop  offset="0.23" style="stop-color:#8C8C8C"/>
	<stop  offset="0.72" style="stop-color:#6C6D6D"/>
	<stop  offset="1" style="stop-color:#606161"/>
</linearGradient>
<path id="Path_35" class="st9" d="M50.1,0h-0.4c-0.1,0.5-0.3,1.1-0.4,1.6c-1.5,6.3-0.4,12,4.4,16.4c4.6,4.3,9.5,8.2,14.3,12.3
	c7.4,6.3,13.7,13.2,16.6,22.8c4.9,16.5-1.6,34.7-15.3,43.4c25.6-10.6,37.7-40,27.1-65.6C88.6,12.2,70.3,0,50.1,0z"/>
</svg>
