<svg id="Layer_1" data-name="Layer 1" xmlns="http://www.w3.org/2000/svg" xmlns:xlink="http://www.w3.org/1999/xlink" width="31.16cm" height="7.62cm" viewBox="0 0 883.14 215.97"><defs><style>.cls-1{fill:url(#linear-gradient);}.cls-2{fill:url(#linear-gradient-2);}.cls-3{fill:url(#linear-gradient-3);}.cls-4{fill:url(#linear-gradient-4);}.cls-5{fill:url(#linear-gradient-5);}.cls-6{fill:url(#linear-gradient-6);}.cls-7{fill:url(#linear-gradient-7);}.cls-8{fill:#9b9b9b;}.cls-9{fill:url(#linear-gradient-8);}.cls-10{fill:url(#linear-gradient-9);}</style><linearGradient id="linear-gradient" x1="-1118.33" y1="812.03" x2="-1116.18" y2="810.08" gradientTransform="matrix(30.64, 0, 0, -58.36, 34539.04, 47409.69)" gradientUnits="userSpaceOnUse"><stop offset="0" stop-color="#9b9c9c"/><stop offset="0.41" stop-color="#727272"/><stop offset="1" stop-color="#383938"/></linearGradient><linearGradient id="linear-gradient-2" x1="-1080.7" y1="812.08" x2="-1073.4" y2="810.15" gradientTransform="matrix(8.72, 0, 0, -57.34, 9768.7, 46599.34)" xlink:href="#linear-gradient"/><linearGradient id="linear-gradient-3" x1="-1107.05" y1="818.79" x2="-1104.67" y2="816.82" gradientTransform="matrix(20.09, 0, 0, -42.18, 22649.44, 34600.38)" xlink:href="#linear-gradient"/><linearGradient id="linear-gradient-4" x1="-1119.09" y1="817.1" x2="-1117.81" y2="814.88" gradientTransform="matrix(44.95, 0, 0, -44.99, 50806.99, 36824.32)" xlink:href="#linear-gradient"/><linearGradient id="linear-gradient-5" x1="-1102.27" y1="981.88" x2="-1101.58" y2="977.36" gradientTransform="matrix(21.68, 0, 0, -5.71, 24527.91, 5700.62)" xlink:href="#linear-gradient"/><linearGradient id="linear-gradient-6" x1="-1111.81" y1="811.86" x2="-1109.02" y2="810.31" gradientTransform="matrix(32.54, 0, 0, -58.32, 36831.86, 47381.66)" gradientUnits="userSpaceOnUse"><stop offset="0" stop-color="#1a478e"/><stop offset="0.11" stop-color="#0766af"/><stop offset="0.26" stop-color="#148dce"/><stop offset="0.38" stop-color="#20a4dd"/><stop offset="0.46" stop-color="#2bace2"/><stop offset="0.54" stop-color="#27a5de"/><stop offset="0.67" stop-color="#1b91d0"/><stop offset="0.83" stop-color="#0572ba"/><stop offset="1" stop-color="#1a478e"/></linearGradient><linearGradient id="linear-gradient-7" x1="-1116.56" y1="811.92" x2="-1113.67" y2="809.61" gradientTransform="matrix(46.51, 0, 0, -58.4, 52685.24, 47443.29)" xlink:href="#linear-gradient-6"/><linearGradient id="linear-gradient-8" x1="-1127.34" y1="805" x2="-1124.77" y2="805" gradientTransform="matrix(55.02, 0, 0, -84.18, 62030.61, 67874.95)" xlink:href="#linear-gradient-6"/><linearGradient id="linear-gradient-9" x1="-1124.82" y1="807.21" x2="-1122.26" y2="804.22" gradientTransform="matrix(43.33, 0, 0, -81.04, 48842.61, 65380.72)" gradientUnits="userSpaceOnUse"><stop offset="0" stop-color="#9b9c9c"/><stop offset="0.23" stop-color="#8c8c8c"/><stop offset="0.72" stop-color="#6c6d6d"/><stop offset="1" stop-color="#606161"/></linearGradient></defs><g id="logo2"><path id="Path_1" data-name="Path 1" class="cls-1" d="M271.94,167.92V18.33h78.55v.26a14.47,14.47,0,0,1-4.42,10.66,14.31,14.31,0,0,1-10.54,4.41h-48.3V85.47h63.26v.33a15,15,0,0,1-15,15h-48.3v52.11a14.55,14.55,0,0,1-4.39,10.59,14.35,14.35,0,0,1-10.57,4.46Z"/><path id="Path_2" data-name="Path 2" class="cls-2" d="M385,24.14a11.15,11.15,0,0,1,.07,15.77L385,40a10.81,10.81,0,0,1-7.93,3.3,10.54,10.54,0,0,1-7.87-3.3,11.26,11.26,0,0,1,0-15.84,10.67,10.67,0,0,1,7.87-3.23A10.92,10.92,0,0,1,385,24.14ZM369.52,59.89h15.29v92.93a15,15,0,0,1-14.92,15.06h-.37Z"/><path id="Path_3" data-name="Path 3" class="cls-3" d="M416.49,167.92V59.8h.21a14.59,14.59,0,0,1,13.43,8.25,35.19,35.19,0,0,1,23.1-8.25H468v.32a14.41,14.41,0,0,1-4.18,10.51,14.68,14.68,0,0,1-10.67,4.46,21.48,21.48,0,0,0-15,6.37,20.56,20.56,0,0,0-6.27,15.08v56.33a15.1,15.1,0,0,1-15.08,15Z"/><path id="Path_4" data-name="Path 4" class="cls-4" d="M581.28,142.61A57.57,57.57,0,0,1,478.36,91.46a59,59,0,0,1,12.3-18.36A58.37,58.37,0,0,1,509,60.67a57.57,57.57,0,0,1,44.77,0,58.61,58.61,0,0,1,30.78,30.79,55.61,55.61,0,0,1,4.48,22.37v7.67H489.74a42.77,42.77,0,0,0,11.79,22.23,41.69,41.69,0,0,0,29.92,12.44,41,41,0,0,0,21.12-5.62,43.49,43.49,0,0,0,8.8-6.51,15.39,15.39,0,0,1,10.45-4.5,16.39,16.39,0,0,1,7.71,2.09ZM501.52,83.89a42.71,42.71,0,0,0-11.79,22.33H573a42.24,42.24,0,0,0-71.52-22.33Z"/><path id="Path_5" data-name="Path 5" class="cls-5" d="M665.92,99.67h0a14.64,14.64,0,0,1-14.64,14.63H610.34A14.64,14.64,0,0,1,625,99.67h40.94Z"/><path id="Path_6" data-name="Path 6" class="cls-6" d="M696,167.92V33.71H661.89V33.5a14.44,14.44,0,0,1,4.39-10.66,14.45,14.45,0,0,1,10.66-4.42h68.34v.16a14.5,14.5,0,0,1-4.41,10.67,14.55,14.55,0,0,1-10.67,4.39H711.29V152.87a15.11,15.11,0,0,1-15.17,15H696Z"/><path id="Path_7" data-name="Path 7" class="cls-7" d="M854.51,161.32l-36.63-54.45-36.76,54.45A14.48,14.48,0,0,1,768.69,168H758.26l50.37-74.81-7.8-11.62L758.26,18.42h10.43A14.62,14.62,0,0,1,781.12,25l36.76,54.46L854.51,25a14.68,14.68,0,0,1,12.55-6.6h10.43L834.81,81.68,827.12,93.3l50.37,74.81H867.06A14.62,14.62,0,0,1,854.51,161.32Z"/><path id="Path_8" data-name="Path 8" class="cls-8" d="M272.69,183h-.56v23.17H275v-10h12.68v-2.72H275v-7.66h13.12V183H272.69Z"/><path id="Path_9" data-name="Path 9" class="cls-8" d="M296,183h-.56v23.13h2.77V183Z"/><path id="Path_10" data-name="Path 10" class="cls-8" d="M317.92,197.61a7.27,7.27,0,0,0,4.65-2.07,6.93,6.93,0,0,0,1.83-5,7.38,7.38,0,0,0-7.35-7.42H306.37v23.23h2.82v-8.54h5.2l7.46,8.15.16.19h3.74l-.86-.93Zm-8.72-12h7.44a4.78,4.78,0,0,1,3.53,1.35,4.62,4.62,0,0,1,1.3,3.36,4.35,4.35,0,0,1-5,4.65H309.2Z"/><path id="Path_11" data-name="Path 11" class="cls-8" d="M334,203.37v-7.59h12.9v-2.63H334v-7.48h13.52V183H331.21v23.13h16.66v-2.74H334Z"/><path id="Path_12" data-name="Path 12" class="cls-8" d="M376.55,192.83h-.23c-3.81-.7-6.29-1.35-6.29-3.63,0-3.81,5.48-3.9,6.11-3.9a6.63,6.63,0,0,1,6.34,2.88l.28.46.46-.28,1.37-.81.52-.3-.33-.49a9,9,0,0,0-8.53-4,10.34,10.34,0,0,0-7.31,2.51,5.53,5.53,0,0,0-1.61,4.16c0,4.5,4.65,5.38,8.6,6.18s6.83,1.51,6.81,4.18c0,3.71-4.53,4.1-6.49,4.1a8.11,8.11,0,0,1-7-3.7l-.26-.48-.49.25-1.51.75-.48.25.25.49a10.47,10.47,0,0,0,9.5,5.09c2.19,0,9.3-.49,9.3-6.71C385.41,194.62,380.72,193.71,376.55,192.83Z"/><path id="Path_13" data-name="Path 13" class="cls-8" d="M408,183h-.55v14.24a6.23,6.23,0,0,1-12.43.76,4.82,4.82,0,0,1,0-.76V183h-2.77v14.24a8.69,8.69,0,0,0,8.06,9.27c.3,0,.61,0,.91,0a8.82,8.82,0,0,0,9-8.6c0-.23,0-.46,0-.69V183H408Z"/><path id="Path_14" data-name="Path 14" class="cls-8" d="M428.41,183h-10.2v23.23H421V198.5h7.41a7.51,7.51,0,0,0,7.74-7.27v-.49a8,8,0,0,0-1.95-5.32A7.45,7.45,0,0,0,428.41,183ZM421,185.64h7.41a4.86,4.86,0,0,1,3.72,1.58,5.49,5.49,0,0,1,1.23,3.54,4.82,4.82,0,0,1-4.52,5.08H421Z"/><path id="Path_15" data-name="Path 15" class="cls-8" d="M453.41,183H443.19v23.23H446V198.5h7.43a7.48,7.48,0,0,0,7.71-7.24,4.51,4.51,0,0,0,0-.52,8,8,0,0,0-1.92-5.32A7.54,7.54,0,0,0,453.41,183ZM446,185.65h7.43a4.62,4.62,0,0,1,3.69,1.58,5.36,5.36,0,0,1,1.26,3.53,4.81,4.81,0,0,1-4.52,5.08H446Z"/><path id="Path_16" data-name="Path 16" class="cls-8" d="M479.74,197.61a7.34,7.34,0,0,0,4.53-2.06,7.22,7.22,0,0,0,2-5.16,7.42,7.42,0,0,0-7.41-7.42H468.21v23.23H471v-8.43h5.22l7.46,8.15.16.19h3.72l-.84-.93Zm-8.74-12h7.46a4.65,4.65,0,0,1,4.83,4.46v.19a4.36,4.36,0,0,1-4,4.69,5,5,0,0,1-1,0H471Z"/><path id="Path_17" data-name="Path 17" class="cls-8" d="M495.76,203.37v-7.59h12.92v-2.63H495.76v-7.48h13.55V183H493v23.13h16.68v-2.74Z"/><path id="Path_18" data-name="Path 18" class="cls-8" d="M526,192.83h-.25c-3.79-.7-6.27-1.35-6.27-3.63,0-3.81,5.48-3.9,6.11-3.9a6.56,6.56,0,0,1,6.2,2.88l.3.46.47-.28,1.37-.81.51-.3-.33-.49a9,9,0,0,0-8.52-4,10.36,10.36,0,0,0-7.32,2.51,5.56,5.56,0,0,0-1.6,4.16c0,4.5,4.65,5.38,8.59,6.18s6.83,1.51,6.81,4.18c0,3.71-4.65,4.1-6.48,4.1a8.08,8.08,0,0,1-7-3.7l-.26-.48-.48.25-1.51.75-.49.25.23.49a10.53,10.53,0,0,0,9.53,5.09c2.16,0,9.29-.49,9.29-6.71C534.8,194.62,530.12,193.71,526,192.83Z"/><path id="Path_19" data-name="Path 19" class="cls-8" d="M550.29,192.83H550c-3.78-.7-6.27-1.35-6.27-3.63,0-3.8,5.48-3.9,6.11-3.9a6.59,6.59,0,0,1,6.2,2.88l.31.47.34-.47,1.4-.81.51-.3-.32-.49a9,9,0,0,0-8.53-4,10.41,10.41,0,0,0-7.34,2.51,5.58,5.58,0,0,0-1.58,4.15c0,4.51,4.65,5.39,8.59,6.18s6.84,1.51,6.81,4.18c0,3.72-4.64,4.11-6.48,4.11a8.08,8.08,0,0,1-7-3.7l-.26-.48-.49.25-1.51.74-.48.26.23.49a10.53,10.53,0,0,0,9.53,5.09c2.16,0,9.29-.49,9.29-6.72C559.05,194.62,554.4,193.71,550.29,192.83Z"/><path id="Path_20" data-name="Path 20" class="cls-8" d="M566.62,183h-.56v23.13h2.77V183Z"/><path id="Path_21" data-name="Path 21" class="cls-8" d="M588.37,182.63a11.18,11.18,0,0,0-11.64,10.7,11.76,11.76,0,0,0,0,1.19,11.62,11.62,0,0,0,23.23,0,12.09,12.09,0,0,0-3.3-8.66,11.36,11.36,0,0,0-8.32-3.23Zm8.92,11.92a8.92,8.92,0,1,1-17.82.85,6,6,0,0,1,0-.85,9.37,9.37,0,0,1,2.53-6.83,9.11,9.11,0,0,1,15.29,6.83Z"/><path id="Path_22" data-name="Path 22" class="cls-8" d="M623.47,183h-.53v17.23l-13.85-17-.16-.21H607.4v23.13h2.79V188.9l13.89,17,.16.21h1.46V183Z"/><path id="Path_23" data-name="Path 23" class="cls-8" d="M655.55,192.83h-.25c-3.81-.7-6.3-1.35-6.3-3.63,0-3.81,5.51-3.9,6.13-3.9a6.63,6.63,0,0,1,6.14,2.88l.28.46.46-.28,1.4-.81.48-.3-.32-.49a9,9,0,0,0-8.51-4,10.38,10.38,0,0,0-7.34,2.51,5.58,5.58,0,0,0-1.58,4.16c0,4.5,4.65,5.38,8.6,6.18s6.83,1.51,6.78,4.18c0,3.71-4.5,4.1-6.46,4.1a8.11,8.11,0,0,1-7-3.7l-.24-.48-.53,0-1.51.75-.51.25.25.49a10.5,10.5,0,0,0,9.53,5.09c2.16,0,9.29-.49,9.29-6.72C664.4,194.62,659.69,193.71,655.55,192.83Z"/><path id="Path_24" data-name="Path 24" class="cls-8" d="M681.51,183H671.28v23.23h2.82V198.5h7.41a7.47,7.47,0,0,0,7.64-7.31,3.38,3.38,0,0,0,0-.45,7.91,7.91,0,0,0-1.93-5.32A7.49,7.49,0,0,0,681.51,183Zm5,7.78a4.81,4.81,0,0,1-4.52,5.08H674.1V185.64h7.41a4.82,4.82,0,0,1,3.71,1.58,5.41,5.41,0,0,1,1.23,3.55Z"/><path id="Path_25" data-name="Path 25" class="cls-8" d="M699,203.37v-7.59h12.9v-2.63H699v-7.48h13.52V183H696.28v23.13H713v-2.74Z"/><path id="Path_26" data-name="Path 26" class="cls-8" d="M730.71,185.35a9,9,0,0,1,6.48,2.63l.37.37.37-.35,1.16-1,.45-.39-.42-.4a12.31,12.31,0,0,0-17-.19,12,12,0,0,0-3.3,8.67,11.19,11.19,0,0,0,10.75,11.63c.37,0,.75,0,1.12,0a11.61,11.61,0,0,0,8.41-3.49l.42-.39-.42-.38L738,201l-.37-.38-.4.38a9.24,9.24,0,0,1-6.5,2.64,8.61,8.61,0,0,1-9-8.17c0-.29,0-.58,0-.86a9.47,9.47,0,0,1,2.53-6.79,9.12,9.12,0,0,1,6.51-2.46Z"/><path id="Path_27" data-name="Path 27" class="cls-8" d="M747.18,183h-.56v23.13h2.77V183Z"/><path id="Path_28" data-name="Path 28" class="cls-8" d="M768.14,183.3,768,183h-2.65l-.14.32-9.87,22-.35.78h3l.14-.32,2.32-5.09h12.3l2.33,5.09.13.32h3l-.34-.78ZM771.76,198H761.61l5.09-11.5Z"/><path id="Path_29" data-name="Path 29" class="cls-8" d="M787.23,203.4V183h-2.79v23.13h15.2V203.4Z"/><path id="Path_30" data-name="Path 30" class="cls-8" d="M806.75,183h-.56v23.13H809V183Z"/><path id="Path_31" data-name="Path 31" class="cls-8" d="M826.22,192.83H826c-3.81-.7-6.3-1.35-6.3-3.63,0-3.81,5.49-3.9,6.11-3.9a6.63,6.63,0,0,1,6.32,2.88l.28.46.47-.28,1.37-.81.51-.3-.33-.49a9,9,0,0,0-8.52-4,10.36,10.36,0,0,0-7.32,2.51,5.47,5.47,0,0,0-1.65,4c0,4.51,4.65,5.38,8.57,6.18s6.83,1.51,6.81,4.18c0,3.72-4.53,4.1-6.48,4.1a8.11,8.11,0,0,1-7-3.69l-.26-.49-.48.26-1.51.74-.49.26.26.48a10.42,10.42,0,0,0,9.5,5.09c2.18,0,9.29-.48,9.29-6.71C835.16,194.62,830.47,193.71,826.22,192.83Z"/><path id="Path_32" data-name="Path 32" class="cls-8" d="M840.9,183h-.53v2.62h8v20.49h2.79V185.64h8V183Z"/><path id="Path_33" data-name="Path 33" class="cls-8" d="M874.17,192.83h-.24c-3.8-.7-6.29-1.35-6.29-3.63,0-3.81,5.51-3.9,6.13-3.9a6.61,6.61,0,0,1,6.21,2.88l.28.46.46-.28,1.37-.81.51-.3-.32-.49a9,9,0,0,0-8.5-4,10.41,10.41,0,0,0-7.35,2.51,5.46,5.46,0,0,0-1.57,4.16c0,4.5,4.64,5.38,8.59,6.18s6.81,1.51,6.79,4.18c0,3.71-4.53,4.1-6.46,4.1a8.12,8.12,0,0,1-7-3.7l-.26-.48-.48.25-1.51.75-.49.25.25.49a10.48,10.48,0,0,0,9.53,5.09c2.16,0,9.29-.49,9.29-6.71C883,194.62,878.33,193.71,874.17,192.83Z"/><path id="Path_34" data-name="Path 34" class="cls-9" d="M30.92,132.87c1.26-11,3.74-22,5.93-32.86a22.66,22.66,0,0,1,4.83-10c.19,2.32.42,4.81.61,7.23A76.82,76.82,0,0,0,59,140.93a34.05,34.05,0,0,0,13.26,9.57c7.34,2.93,13.33-1.67,12.29-9.49a49.83,49.83,0,0,0-6-15.94c-7.1-13.54-15.82-26.53-21.78-40.59C49.82,68.62,51.54,53,59.46,36c-.26,13.12-.21,24.67,6.18,34.54a29.34,29.34,0,0,0,11.79,10c6.64,3.11,10.45-.63,8.78-7.81C84.93,67.4,83,62.15,81.77,56.71a40.7,40.7,0,0,1,3.3-26.95c.65,4.49,1.12,9,2,13.48,4.1,20.91,15,38.54,25.93,56.27,4.64,7.48,9.08,15,13.15,22.81,19.07,36.43,5.92,67.37-20.17,88.56a26.85,26.85,0,0,1-7.78,4.65c3.23.3,6.48.44,9.8.44h1.58c1.86-1.95,3.39-3.59,5-5.11,16.75-16,27.17-34.73,26.4-58.5-.46-14.35-6.2-27-13.17-39.26C119.58,98.32,110.68,83.89,102.74,69,94.1,52.58,90.66,35.09,95.31,16.73A75.32,75.32,0,0,1,101.64.19,108,108,0,0,0,68.89,208.6,76.39,76.39,0,0,1,30.92,132.87Z"/><path id="Path_35" data-name="Path 35" class="cls-10" d="M108,0h-.84c-.3,1.14-.58,2.32-.86,3.39-3.3,13.5-.93,25.79,9.44,35.41,9.89,9.15,20.4,17.68,30.71,26.37,16,13.45,29.58,28.45,35.68,49.18,10.46,35.47-3.5,74.71-32.85,93.37A108,108,0,0,0,108,0Z"/></g></svg>