<?xml version="1.0" encoding="utf-8"?>
<!-- Generator: Adobe Illustrator 24.1.2, SVG Export Plug-In . SVG Version: 6.00 Build 0)  -->
<svg version="1.1" id="Layer_1" xmlns="http://www.w3.org/2000/svg" xmlns:xlink="http://www.w3.org/1999/xlink" x="0px" y="0px"
	 viewBox="0 0 410.1 100.3" style="enable-background:new 0 0 410.1 100.3;" xml:space="preserve">
<style type="text/css">
	.st0{fill:#515151;}
	.st1{fill:#1D78BC;}
	.st2{fill:#1F78BB;}
</style>
<path id="Path_1_1_" class="st0" d="M162.7,22.7h-29.4v24.1h29.4V47c0,3.9,0,0,0,7h-29.4v31c-3.3,0,0,0-2.7,0c-4.2,0-2.3,0-4.2,0
	h-0.1V15.5h36.5v0.1"/>
<path id="Path_2" class="st0" d="M178.8,18.2c2,2,2,5.3,0,7.3l0,0l0,0l0,0c-1,1-2.3,1.6-3.7,1.5c-1.4,0-2.7-0.5-3.6-1.5
	c-2-2-2-5.3,0-7.4c1-1,2.3-1.5,3.6-1.5C176.5,16.7,177.8,17.2,178.8,18.2z M171.6,34.8h7.1V85c-7.1,0,0,0-7.1,0l0,0V34.8z"/>
<path id="Path_3" class="st0" d="M193.4,85V34.8h6.6v3.7c3-2.5,6.6-3.8,10.5-3.7h6.9v0.1c0,1.8,0,0.3,0,7c-6.9,0-5.1,0-6.9,0
	c-2.6,0-5.2,1.1-7,3c-1.9,1.8-2.9,4.4-2.9,7V85C193.5,85,197.3,85,193.4,85L193.4,85z"/>
<path id="Path_4" class="st0" d="M269.9,73.3c-7.4,12.8-23.7,17.2-36.5,9.8c-11.7-6.7-16.5-21.1-11.3-33.6c1.4-3.2,3.3-6,5.7-8.5
	c2.4-2.4,5.3-4.4,8.5-5.8c6.6-2.8,14.2-2.8,20.8,0c6.4,2.8,11.5,7.9,14.3,14.3c1.4,3.3,2.1,6.8,2.1,10.4v3.6h-46.1
	c0.7,3.9,2.7,7.5,5.5,10.3c3.7,3.7,8.7,5.8,13.9,5.8c3.4,0,6.8-0.9,9.8-2.6c1.5-0.8,2.9-1.8,4.1-3c1.3-1.3,0,0,3.1-3
	c6.2,2.3,0,0,5.3,2L269.9,73.3z M232.9,46c-2.8,2.8-4.7,6.4-5.5,10.4h38.7c-1.9-10.7-12.1-17.8-22.8-15.9
	C239.4,41.2,235.7,43.2,232.9,46L232.9,46z"/>
<path id="Path_5" class="st0" d="M309.2,53.3L309.2,53.3c0,3.8,0,0,0,6.8h-25.8c0-3.8,0,0,0-6.8h6.8H309.2L309.2,53.3z"/>
<path id="Path_6_1_" class="st1" d="M346.1,22.7h-15.8v62.4c-7,0-3.1,0-7,0c0,0,0,0-0.1,0l0,0l0,0V22.7h-15.8v-0.1c0-3.9,0,0.1,0-7
	h38.7v0.1"/>
<path id="Path_7" class="st2" d="M399,85l-19.2-28.4L360.3,85l0,0h-8.2l23.4-34.7l-3.6-5.4l-19.8-29.3l0,0c8.7,0,0,0,8.7,0l19,28.3
	l19.1-28.4c8.6,0,0,0,8.6,0l0,0L387.7,45l-3.6,5.4L407.4,85h-4.8C399,85,402.7,85,399,85z"/>
<path id="Path_34" class="st2" d="M14.3,61.7c0.6-5.1,1.7-10.2,2.7-15.3c0.4-1.7,1.1-3.3,2.3-4.6c0.1,1.1,0.2,2.2,0.3,3.4
	c0.4,7.4,3.1,14.5,7.8,20.3c1.7,2,3.8,3.5,6.2,4.4c3.4,1.4,6.2-0.8,5.7-4.4c-0.5-2.6-1.4-5.1-2.8-7.4c-3.3-6.3-7.4-12.3-10.1-18.9
	c-3.2-7.4-2.4-14.6,1.3-22.5c-0.1,6.1-0.1,11.5,2.9,16c1.4,2,3.3,3.6,5.5,4.7c3.1,1.4,4.9-0.3,4.1-3.6c-0.6-2.5-1.5-4.9-2.1-7.4
	c-0.9-4.2-0.4-8.6,1.5-12.5c0.3,2.1,0.5,4.2,0.9,6.3c1.9,9.7,7,17.9,12,26.1c2.2,3.5,4.2,7,6.1,10.6c8.9,17,2.8,31.3-9.3,41.2
	c-1.1,0.9-2.3,1.7-3.6,2.2c1.5,0.1,3,0.2,4.5,0.2h0.7c0.9-0.9,1.6-1.7,2.3-2.4C61,90.7,65.8,82,65.5,70.9
	c-0.2-6.7-2.9-12.5-6.1-18.2c-3.8-6.9-8-13.6-11.6-20.5c-4-7.6-5.7-15.8-3.5-24.3C45,5.2,46,2.7,47.2,0.2
	C19.5,1.8-1.6,25.5,0.1,53.2c1.2,19.5,13.6,36.6,31.8,43.7C19.5,89.8,12.5,75.9,14.3,61.7z"/>
<path id="Path_35" class="st0" d="M50.1,0h-0.4c-0.1,0.5-0.3,1.1-0.4,1.6c-1.5,6.3-0.4,12,4.4,16.4c4.6,4.3,9.5,8.2,14.3,12.3
	c7.4,6.3,13.7,13.2,16.6,22.8c4.9,16.5-1.6,34.7-15.3,43.4c25.6-10.6,37.7-40,27.1-65.6C88.6,12.2,70.3,0,50.1,0z"/>
</svg>
