<svg id="Layer_1" data-name="Layer 1" xmlns="http://www.w3.org/2000/svg" viewBox="0 0 1173.77 289.48"><defs><style>.cls-1{fill:#515151;}.cls-2{fill:#1d78bc;}.cls-3{fill:#1f78bb;}</style></defs><path id="Path_1" data-name="Path 1" class="cls-1" d="M468.64,65.39H384V134.8h84.69v20.74H384v89.3H363.79V44.65H468.92v.28"/><path id="Path_2" data-name="Path 2" class="cls-1" d="M515,52.42a15,15,0,0,1,0,21h0a15,15,0,0,1-21,0,15.3,15.3,0,0,1,0-21.31,14.63,14.63,0,0,1,10.37-4.32A16.32,16.32,0,0,1,515,52.42Zm-20.74,47.82h20.45v144.6H494.27Z"/><path id="Path_3" data-name="Path 3" class="cls-1" d="M557.07,244.84V100.24h19V110.9a44.73,44.73,0,0,1,30.24-10.66H626.2v20.45H606.32a29,29,0,0,0-28.52,28.8v95.35Z"/><path id="Path_4" data-name="Path 4" class="cls-1" d="M777.42,211.14a76.88,76.88,0,0,1-105.14,28.22c-33.7-19.29-47.52-60.77-32.55-96.78a83.2,83.2,0,0,1,16.42-24.48,80.23,80.23,0,0,1,24.49-16.71,77.24,77.24,0,0,1,59.91,0,80,80,0,0,1,41.19,41.19,76.35,76.35,0,0,1,6,30v10.37H655a57.37,57.37,0,0,0,55.88,46.37,57.46,57.46,0,0,0,28.23-7.49,49.7,49.7,0,0,0,11.81-8.64c3.74-3.74,0,0,8.93-8.64,17.86,6.63,0,0,15.26,5.76ZM670.84,132.5a58.35,58.35,0,0,0-15.84,30H766.47a56.56,56.56,0,0,0-65.67-45.8,57.3,57.3,0,0,0-30,15.84Z"/><path id="Path_5" data-name="Path 5" class="cls-1" d="M890.62,153.53h0v19.58H816.3V153.53h74.32Z"/><path id="Path_6" data-name="Path 6" class="cls-2" d="M996.91,65.39H951.4V245.13H931V65.39H885.44V44.93H996.91v.29"/><path id="Path_7" data-name="Path 7" class="cls-3" d="M1149.28,244.84,1094,163l-56.17,81.81h-23.62l67.4-100-10.37-15.56-57-84.4h25.06L1094,126.45l55-81.8h24.77l-57,85-10.37,15.55,67.12,99.67h-24.2Z"/><path id="Path_34" data-name="Path 34" class="cls-3" d="M41.18,177.72c1.73-14.69,4.9-29.38,7.78-44.07a28.87,28.87,0,0,1,6.62-13.25c.29,3.17.58,6.34.86,9.8a101.51,101.51,0,0,0,22.47,58.47,43.34,43.34,0,0,0,17.86,12.67c9.79,4,17.86-2.3,16.42-12.67a63.82,63.82,0,0,0-8.07-21.32c-9.5-18.14-21.31-35.43-29.09-54.44-9.22-21.31-6.91-42,3.75-64.81-.29,17.57-.29,33.13,8.35,46.09A42.44,42.44,0,0,0,104,107.73c8.93,4,14.12-.87,11.81-10.37-1.73-7.2-4.32-14.12-6-21.32a55.59,55.59,0,0,1,4.32-36c.87,6.05,1.44,12.1,2.6,18.14,5.47,27.95,20.16,51.56,34.56,75.18,6.34,10.09,12.1,20.17,17.57,30.54,25.64,49,8.07,90.15-26.79,118.67a38.45,38.45,0,0,1-10.37,6.34c4.32.29,8.65.57,13,.57h2c2.6-2.59,4.61-4.89,6.63-6.91,22.47-21.31,36.29-46.37,35.43-78.35-.58-19.3-8.36-36-17.57-52.42-11-19.88-23.05-39.17-33.42-59.05-11.52-21.89-16.42-45.51-10.08-70A121.65,121.65,0,0,1,135.94.58,144.33,144.33,0,0,0,91.87,279.11,102.23,102.23,0,0,1,41.18,177.72Z"/><path id="Path_35" data-name="Path 35" class="cls-1" d="M144.3,0h-1.15c-.29,1.44-.87,3.17-1.16,4.61-4.32,18.15-1.15,34.56,12.68,47.24C167.92,64.23,182,75.47,195.86,87.28c21.31,18.14,39.46,38,47.81,65.67,14.12,47.53-4.61,100-44.07,125C273.34,247.43,308.2,162.74,277.66,89A144.7,144.7,0,0,0,144.3,0Z"/></svg>